<?xml version="1.0" encoding="UTF-8"?>
<svg version="1.1" xmlns="http://www.w3.org/2000/svg" width="1024" height="1024">
<path d="M0 0 C1.95911854 1.69563463 3.87090889 3.40166785 5.76286316 5.168396 C6.31940746 5.68560581 6.87595175 6.20281562 7.44936103 6.73569846 C15.26421629 14.05465384 22.79558608 21.66432156 30.35668945 29.24316406 C32.06280371 30.94956099 33.76913938 32.65573656 35.47567749 34.36170959 C39.59529733 38.48107401 43.71263547 42.60270831 47.82892779 46.72539756 C52.62621496 51.52988709 57.4263788 56.33149838 62.22669914 61.13295707 C70.78452391 69.69296096 79.34012139 78.25518733 87.89428711 86.81884766 C96.19518639 95.12895074 104.49715379 103.43798439 112.80053711 111.74560547 C113.31387194 112.25920302 113.82720677 112.77280057 114.3560972 113.30196169 C116.93180599 115.87897568 119.50753555 118.45596892 122.08327544 121.03295183 C143.39207073 142.35208415 164.69720061 163.67487626 186 185 C188.96635773 183.66517408 191.03932593 182.2066994 193.32668114 179.90265465 C193.96695633 179.26266136 194.60723153 178.62266806 195.266909 177.96328104 C195.96164245 177.25862919 196.65637589 176.55397734 197.37216187 175.82797241 C198.11707528 175.08053445 198.86198869 174.3330965 199.62947524 173.5630089 C202.13192438 171.04977927 204.62715208 168.52949835 207.12255859 166.00927734 C208.91274492 164.20870699 210.70341634 162.40861883 212.49453735 160.60897827 C216.3560134 156.72759809 220.21461319 152.84339218 224.07105637 148.95701218 C230.17540979 142.80586474 236.29017692 136.66512758 242.40664673 130.52603149 C244.50101097 128.42366396 246.59530799 126.32122949 248.68958473 124.2187748 C249.21301643 123.69330464 249.73644813 123.16783449 250.27574139 122.62644099 C256.23423599 116.64445966 262.19059227 110.66035124 268.14599609 104.67529297 C268.69033486 104.12824934 269.23467363 103.58120571 269.79550751 103.01758499 C278.59904513 94.16977017 287.39481528 85.31426495 296.18859796 76.45675628 C305.22913122 67.35127516 314.28130686 58.25747643 323.34337866 49.17343104 C328.92479056 43.57762513 334.49659794 37.97259517 340.05614455 32.35506363 C344.32888626 28.0395679 348.61740825 23.74010405 352.91180038 19.44614029 C354.66247558 17.69064577 356.40804059 15.93003682 358.14788055 14.1638031 C375.10226306 -3.03682773 391.84575086 -14.34901807 416.8125 -15.3125 C436.65173765 -14.79635723 454.78702759 -7.00246645 468.71508789 7.11035156 C478.99158157 18.11016202 486.25697886 33.89190357 487 49 C487.05027344 49.85207031 487.10054687 50.70414062 487.15234375 51.58203125 C487.92210528 74.58250589 478.86462288 91.76976525 463.55602574 108.34856558 C457.49655905 114.77957221 451.16822397 120.9596689 444.91381836 127.19970703 C443.18815987 128.92508308 441.46272229 130.65068009 439.73748779 132.3764801 C436.03952412 136.07467049 432.34004548 139.77133792 428.63914299 143.46658707 C423.28842992 148.80913199 417.9405193 154.15447511 412.59326274 159.50047933 C403.91512611 168.17643374 395.23476423 176.85015817 386.55297852 185.52246094 C378.12536647 193.9408773 369.69881778 202.36035573 361.27368164 210.78125 C360.49314207 211.56139549 360.49314207 211.56139549 359.69683402 212.35730149 C357.08604001 214.96679035 354.47526672 217.57629995 351.86450374 220.18581986 C330.24621471 241.79376218 308.62426663 263.3980397 287 285 C291.22445129 290.04451734 295.6360359 294.77132677 300.30464172 299.40470886 C301.01803984 300.11684471 301.73143796 300.82898056 302.46645421 301.56269628 C304.84286209 303.93375308 307.22283164 306.30120179 309.6027832 308.66870117 C311.31341958 310.37414076 313.02381166 312.07982543 314.73397827 313.78573608 C318.41085607 317.45269114 322.08916188 321.11820742 325.76857948 324.78261375 C331.59316872 330.58373559 337.41249148 336.39012488 343.23100281 342.19734192 C345.2259804 344.18831867 347.22099192 346.17926141 349.21601391 348.17019367 C349.9637638 348.91641472 349.9637638 348.91641472 350.72661975 349.67771095 C356.39230918 355.33167393 362.05907473 360.98455779 367.72631836 366.63696289 C368.24392214 367.15321424 368.76152592 367.66946559 369.29481467 368.20136092 C377.67578059 376.56016376 386.0605919 384.91510104 394.44638429 393.26906141 C403.07526381 401.86546835 411.69830736 410.46770076 420.3164584 419.07486326 C425.62131668 424.37252812 430.93082771 429.66543988 436.2465749 434.95217899 C440.32781501 439.01204417 444.4010804 443.07983653 448.47153854 447.15050888 C450.13411407 448.81067498 451.79924584 450.46828597 453.46720314 452.12304497 C469.99471718 468.52528407 485.51709319 485.50956943 487 510 C487.05285156 510.85722656 487.10570312 511.71445312 487.16015625 512.59765625 C487.77290885 532.39222936 481.07967358 550.04561535 467.625 564.5625 C466.75875 565.366875 465.8925 566.17125 465 567 C464.49597656 567.52078125 463.99195313 568.0415625 463.47265625 568.578125 C453.17502751 578.58282338 437.25271956 585.15101129 423 586 C421.71222656 586.07927734 421.71222656 586.07927734 420.3984375 586.16015625 C407.66593409 586.55482954 395.1781302 584.21007233 384 578 C382.68322266 577.27876953 382.68322266 577.27876953 381.33984375 576.54296875 C376.16081004 573.4802596 371.62094479 569.93313714 367.23323059 565.831604 C366.39883712 565.05578928 366.39883712 565.05578928 365.54758722 564.26430154 C357.73506711 556.94402702 350.20385756 549.33512077 342.64331055 541.75683594 C340.93719629 540.05043901 339.23086062 538.34426344 337.52432251 536.63829041 C333.40470267 532.51892599 329.28736453 528.39729169 325.17107221 524.27460244 C320.37378504 519.47011291 315.5736212 514.66850162 310.77330086 509.86704293 C302.21547609 501.30703904 293.65987861 492.74481267 285.10571289 484.18115234 C276.80481361 475.87104926 268.50284621 467.56201561 260.19946289 459.25439453 C259.42946065 458.4839982 259.42946065 458.4839982 258.6439028 457.69803831 C256.06819401 455.12102432 253.49246445 452.54403108 250.91672456 449.96704817 C229.60792927 428.64791585 208.30279939 407.32512374 187 386 C181.93889443 390.23758546 177.19900111 394.66583983 172.55059814 399.34933472 C171.83367318 400.06752195 171.11674821 400.78570919 170.37809825 401.52565968 C167.99088821 403.91822121 165.60728589 406.31434436 163.22363281 408.71044922 C161.50671856 410.43256016 159.78955929 412.15442685 158.07217407 413.87606812 C154.38066192 417.577503 150.69058841 421.28036584 147.00162506 424.98434067 C141.16296998 430.84645851 135.31905133 436.70331374 129.4743042 442.55935669 C127.47074179 444.5669199 125.46721341 446.57451706 123.46369553 448.58212471 C122.96307823 449.08376124 122.46246093 449.58539776 121.94667341 450.1022354 C116.25718964 455.80344542 110.56878531 461.5057319 104.88085938 467.20849609 C104.3613551 467.7293528 103.84185083 468.25020951 103.306604 468.78684975 C94.89216393 477.22346043 86.48158575 485.66391299 78.07198039 494.10534249 C69.42020025 502.78958042 60.76260698 511.46799478 52.10008121 520.14151394 C46.76710007 525.48169316 41.43887727 530.82653117 36.1168091 536.17758681 C32.03170086 540.28404672 27.93868865 544.38255539 23.84278488 548.47824478 C22.17091221 550.15252957 20.50159961 551.82937548 18.83512497 553.5090332 C0.74795144 571.73323804 -16.9611391 585.63157033 -43.75 586.1875 C-63.5005765 585.9396885 -81.54950245 578.32326236 -95.40600586 564.25634766 C-108.03382002 550.72037535 -114.73104775 532.27542899 -114.25 513.78515625 C-111.90150854 487.62149354 -99.29702473 471.68667607 -81.22290039 453.76879883 C-79.39837126 451.94539922 -77.5747249 450.12111591 -75.75189209 448.29602051 C-71.84065014 444.38269135 -67.92221049 440.47669434 -63.99864388 436.57572365 C-58.32599874 430.93572604 -52.6645633 425.28458307 -47.00571495 419.63074668 C-37.82209245 410.45585694 -28.62959182 401.28991681 -19.43139648 392.12963867 C-10.50155368 383.23656842 -1.57596388 374.33926466 7.34399414 365.4362793 C7.89474926 364.88657507 8.44550438 364.33687085 9.01294904 363.77050892 C11.77617672 361.01250178 14.53932157 358.25441167 17.30242527 355.49628031 C40.18879328 332.65131137 63.08961436 309.82088337 86 287 C84.6788194 284.07487836 83.25407222 282.0062905 80.98353481 279.74581909 C80.05059539 278.80968167 80.05059539 278.80968167 79.09880871 277.85463238 C78.07203623 276.83966796 78.07203623 276.83966796 77.02452087 275.80419922 C76.29820624 275.07829244 75.57189161 274.35238565 74.82356745 273.6044817 C72.38179487 271.1664478 69.93295092 268.73564114 67.48413086 266.3046875 C65.73446401 264.56049477 63.98525834 262.8158393 62.23648071 261.070755 C58.46495947 257.30895713 54.6905001 253.55014434 50.91355705 249.79379272 C45.44141135 244.35120432 39.97624504 238.90164933 34.51304013 233.4500879 C25.63414024 224.5902083 16.7518855 215.73370122 7.86645508 206.88037109 C7.33462683 206.35046078 6.80279858 205.82055047 6.25485433 205.27458227 C0.33042625 199.37166924 -5.59481981 193.46957834 -11.52099609 187.56842041 C-13.66529203 185.43315502 -15.8095811 183.29788275 -17.95385742 181.16259766 C-18.48291555 180.63576118 -19.01197369 180.1089247 -19.55706389 179.56612349 C-28.40270717 170.75730044 -37.24244658 161.94257831 -46.07764524 153.12327957 C-51.52009834 147.69112133 -56.96750552 142.2640276 -62.4215427 136.84349972 C-66.61145292 132.67850008 -70.79348687 128.50565233 -74.97275925 124.32997704 C-76.68047308 122.62626219 -78.39075429 120.92511602 -80.10386848 119.22683144 C-98.6313607 100.85387807 -113.20861599 82.71181687 -114.25 55.5 C-113.98753187 36.54396862 -106.85663802 18.93542118 -93.75 5.25 C-67.66730274 -19.72960911 -28.77598363 -21.2182831 0 0 Z " fill="#000000" transform="translate(326,228)"/>
</svg>
