<?xml version="1.0" encoding="UTF-8"?>
<svg version="1.1" xmlns="http://www.w3.org/2000/svg" width="16" height="15">
<path d="M0 0 C1.0725 0.00515625 2.145 0.0103125 3.25 0.015625 C4.85875 0.00789063 4.85875 0.00789063 6.5 0 C9.25 0.265625 9.25 0.265625 11.25 2.265625 C11.1875 5.640625 11.1875 5.640625 10.25 9.265625 C7.75 11.578125 7.75 11.578125 5.25 13.265625 C4.92 13.925625 4.59 14.585625 4.25 15.265625 C3.26 14.935625 2.27 14.605625 1.25 14.265625 C1.25 13.605625 1.25 12.945625 1.25 12.265625 C0.63125 11.9975 0.0125 11.729375 -0.625 11.453125 C-2.75 10.265625 -2.75 10.265625 -4.75 7.265625 C-5 4.703125 -5 4.703125 -4.75 2.265625 C-2.75 0.265625 -2.75 0.265625 0 0 Z M-1.75 2.265625 C-2.70020416 4.50546 -2.70020416 4.50546 -2.75 7.265625 C-0.54135579 10.14114022 -0.54135579 10.14114022 2.25 12.265625 C2.91 12.265625 3.57 12.265625 4.25 12.265625 C4.25 11.605625 4.25 10.945625 4.25 10.265625 C5.2090625 9.9253125 5.2090625 9.9253125 6.1875 9.578125 C8.52193661 8.41311604 8.52193661 8.41311604 9 5.640625 C9.0825 4.856875 9.165 4.073125 9.25 3.265625 C6.35765685 2.43924124 4.36257569 2.265625 1.25 2.265625 C0.26 2.265625 -0.73 2.265625 -1.75 2.265625 Z " fill="#000000" transform="translate(4.75,-0.265625)"/>
</svg>
