<?xml version="1.0" encoding="UTF-8"?>
<svg version="1.1" xmlns="http://www.w3.org/2000/svg" width="16" height="15">
<path d="M0 0 C2.64 1.98 5.28 3.96 8 6 C6.94250081 10.22999675 6.79967512 10.54930356 3.4375 12.75 C2.79683594 13.17796875 2.15617188 13.6059375 1.49609375 14.046875 C0.75552734 14.51867187 0.75552734 14.51867187 0 15 C0.875 11.125 0.875 11.125 2 10 C-0.64 9.67 -3.28 9.34 -6 9 C-6 8.01 -6 7.02 -6 6 C-3.36 5.67 -0.72 5.34 2 5 C1.34 4.34 0.68 3.68 0 3 C0 2.01 0 1.02 0 0 Z " fill="#000000" transform="translate(7,0)"/>
</svg>
