<svg width="23" height="18" viewBox="0 0 23 18" fill="none" xmlns="http://www.w3.org/2000/svg">
<path d="M22.1678 2.13818C21.3526 2.48965 20.4654 2.74261 19.5517 2.84113C20.5004 2.2778 21.2108 1.38782 21.5497 0.338176C20.6595 0.867496 19.6842 1.23866 18.6672 1.43522C18.2421 0.981027 17.728 0.6192 17.1569 0.372279C16.5858 0.125359 15.97 -0.00136274 15.3477 1.10514e-05C12.8302 1.10514e-05 10.8055 2.03965 10.8055 4.54261C10.8055 4.89409 10.8481 5.24557 10.9174 5.58374C7.14772 5.38669 3.78565 3.58669 1.55049 0.83078C1.14322 1.52606 0.929799 2.31771 0.932427 3.12338C0.932427 4.69971 1.73431 6.08965 2.95713 6.90711C2.2365 6.87874 1.53276 6.68077 0.903122 6.3293V6.38521C0.903122 8.59261 2.46427 10.4219 4.54492 10.8426C4.15425 10.944 3.75237 10.9959 3.34875 10.997C3.05303 10.997 2.7733 10.9678 2.49091 10.9278C3.06635 12.7278 4.74206 14.0352 6.73745 14.0778C5.1763 15.3 3.22087 16.0189 1.0976 16.0189C0.716637 16.0189 0.364979 16.0056 0 15.963C2.01404 17.2544 4.40372 18 6.97722 18C15.3318 18 19.9033 11.0823 19.9033 5.07782C19.9033 4.88078 19.9033 4.68374 19.89 4.48669C20.7745 3.83965 21.5497 3.03817 22.1678 2.13818Z" fill="black"/>
</svg>
